<svg xmlns="http://www.w3.org/2000/svg" xmlns:xlink="http://www.w3.org/1999/xlink" xmlns:serif="http://www.serif.com/" version="1.1" xml:space="preserve" style="fill-rule:evenodd;clip-rule:evenodd;stroke-linejoin:round;stroke-miterlimit:2;" viewBox="693.81 497.32 2582.45 2971.14">
    <g id="Background" transform="matrix(2.90918,0,0,2.90918,690,493)">
        <path d="M416.759,326.424C417.053,326.618 417.346,326.811 417.64,327.005C417.879,327.125 418.118,327.245 418.356,327.365C418.686,326.013 426.271,275.677 438.199,229.421C449.685,184.879 450.916,176.492 428.38,171.831C427.805,171.712 422.359,169.755 430.728,164.865C483.721,133.907 487.142,84.871 493.478,91.523C496.322,94.509 495.059,125.961 496.687,211.497C497.479,253.117 501.155,559.132 501.888,560.315C504.547,564.607 521.003,553.448 554.192,578.899C605.352,618.129 616.676,609.771 639.75,587.775C642.199,585.44 644.612,587.62 642.093,591.203C626.755,613.014 601.674,626.511 584.457,628.073C526.826,633.302 504.723,597.824 455.56,603.923C438.814,606 421.433,617.189 418.76,618.909C408.787,625.329 410.713,617.318 410.983,616.731C419.415,598.364 442.056,586.069 445.381,584.263C448.832,582.389 446.167,566.394 446.118,505.501C446.063,437.769 449.454,325.19 449.926,309.515C450.939,275.878 453.863,260.267 449.988,271.717C449.045,274.504 449.991,274.678 441.93,307.601C420.468,395.26 424.97,537.473 425.604,557.497C426.057,571.781 426.943,584.845 421.855,580.116C418.917,577.385 402.283,535.041 393.215,492.567C377.716,419.978 375.974,379.975 374.179,367.697C374.155,367.533 374.223,367.561 374.24,365.63C374.25,364.559 373.697,365.373 373.5,365.28C373.253,365.397 373.007,365.514 372.76,365.63C372.696,367.461 372.697,367.426 374.005,388.49C374.856,402.198 377.194,491.958 377.196,492.504C377.412,559.994 396.834,624.235 396.808,624.526C396.329,629.945 387.363,622.354 367.503,622.691C362.302,622.779 362.025,621.611 361.811,616.484C360.444,583.788 356.711,534.325 356.621,533.485C349.65,468.474 351.109,377.688 351.279,311.499C351.506,223.128 353.176,223.191 352.378,215.557C352.361,215.396 351.008,213.124 350.606,216.539C349.941,222.181 348.292,236.175 338.795,286.562C337.689,292.428 331.654,324.45 328.974,360.536C326.502,393.82 324.324,397.041 323.075,446.491C322.034,487.713 325.837,592.019 328.859,616.468C329.346,620.41 326.636,621.813 324.974,618.276C303.548,572.679 295.074,517.166 292.347,505.54C286.887,482.258 265.441,317.184 264.234,308.54C260.455,281.469 260.45,270.037 260.178,269.69C257.42,266.175 258.648,279.671 258.385,295.498C257.305,357.496 256.226,419.494 255.146,481.491C253.694,587.376 253.239,587.306 253.463,596.506C253.521,598.885 254.684,597.774 258.532,598.274C293.577,602.823 306.904,621.963 298.515,621.093C253.75,616.449 240.071,636.882 215.215,659.156C199.115,673.583 167.084,681.533 137.682,669.099C128.142,665.065 118.356,652.57 116.659,648.45C114.502,643.216 123.853,651.272 138.486,651.819C156.146,652.479 199.385,653.505 220.726,571.557C226.731,548.502 226.243,548.216 243.762,186.516C244.922,162.575 232.656,159.677 229.497,154.502C226.261,149.202 234.321,149.545 242.232,143.157C271.633,119.414 289.468,72.712 290.337,72.267C295.016,69.872 295.048,75.983 295.05,76.489C295.104,86.734 295.506,163.253 299.772,204.47C304.83,253.331 304.569,253.328 305.195,257.55C306.375,265.502 315.452,308.47 315.977,295.7C316.647,279.418 335.047,193.928 346.95,147.604C359.265,99.682 361.306,91.053 338.407,77.62C331.678,73.673 351.047,72.145 365.291,59.264C390.027,36.895 397.606,-1.969 402.311,1.732C404.934,3.795 404.378,44.754 404.327,48.498C402.095,212.756 416.311,312.891 416.759,326.424Z" style="fill:rgb(22,67,24);fill-opacity:1;"/>
        <path d="M888.999,842.5L888.999,854.5C888.85,854.975 888.126,855.113 887.977,855.588C887.681,856.53 887.863,857.561 887.732,858.54C882.76,895.72 827.988,923.965 822.768,926.98C752.551,967.548 549.475,1005.161 522.497,1008.477C515.219,1009.371 442.113,1018.356 431.474,1019.217C410.85,1020.887 371.852,1023.472 352.496,1022.613C295.973,1020.103 271.802,1019.743 231.598,1009.131C139.405,984.796 120.178,976.262 90.243,958.926C21.271,918.984 6.398,871.261 3.394,855.52C-13.185,768.638 73.056,722.308 122.572,709.791C165.217,699.012 180.05,698.788 192.507,699.42C196.593,699.628 197.635,704.648 192.477,705.321C45.418,724.538 28.097,824.284 83.412,880.585C109.515,907.154 139.123,930.258 202.463,946.647C208.247,948.143 264.548,960.062 268.469,960.694C316.078,968.368 335.824,972.145 375.508,970.754C514.626,965.878 591.705,958.58 715.416,919.277C803.806,891.196 819.625,887.825 841.232,873.133C865.724,856.479 852.015,835.952 840.288,830.956C789.178,809.181 679.008,857.275 673.626,858.893C664.52,861.632 672.52,852.269 676.12,846.268C698.462,809.022 694.197,803.695 697.762,799.714C700.385,796.786 768.549,783.14 823.539,792.289C885.371,802.576 886.943,838.147 887.984,841.405C888.136,841.879 888.847,842.026 888.999,842.5Z" style="fill:rgb(22,67,24);fill-opacity:1;"/>
        <path d="M197.523,825.054C272.535,825.409 320.264,782.877 324.892,779.881C334.586,773.604 303.446,784.486 271.218,764.969C229.212,739.53 235.936,719.192 256.934,692.851C267.618,679.449 320.414,639.081 348.501,639.354C358.728,639.453 372.825,646.371 379.734,661.396C382.907,668.293 402.358,701.364 386.045,752.363C379.191,773.789 369.849,784.603 351.065,804.081C346.253,809.071 300.654,847.653 241.521,854.674C237.208,855.186 171.716,867.381 124.782,833.115C94.893,811.293 80.183,761.13 168.386,734.142C172.422,732.908 209.633,722.719 212.286,727.589C214.625,731.882 195.611,731.128 166.22,751.082C124.305,779.538 139.926,816.989 184.468,823.724C190.975,824.708 190.936,824.491 197.523,825.054Z" style="fill:rgb(22,67,24);fill-opacity:1;"/>
        <path d="M244.485,919.987C224.29,918.681 196.856,911.13 171.739,895.141C152.571,882.94 130.662,857.294 146.241,865.944C155.808,871.257 223.731,891.586 254.445,884.28C306.333,871.939 330.231,842.366 436.301,792.091C474.976,773.76 509.37,767.185 506.281,754.541C503.256,742.16 500.989,736.545 491.391,728.632C471.005,711.826 441.357,707.129 440.371,706.905C436.941,706.124 439.335,702.745 451.05,672.315C462.243,643.24 462.216,640.764 466.597,642.173C506.177,654.9 562.394,707.28 528.317,795.427C525.158,803.598 523.664,802.527 515.608,805.775C476.154,821.685 476.478,822.272 437.337,839.107C344.016,879.245 306.217,921.702 244.485,919.987Z" style="fill:rgb(22,67,24);fill-opacity:1;"/>
        <path d="M637.921,427.496C637.164,371.36 635.909,369.318 639.534,368.995C642.086,368.769 644.837,376.85 645.102,377.628C661.69,426.353 667.694,423.693 690.464,477.517C725.791,561.022 723.047,670.375 696.844,754.607C663.44,861.986 613.544,888.896 609.175,892.02C558.798,928.044 489.816,935.153 488.696,933.404C484.264,926.48 555.495,930.946 607.404,869.418C648.04,821.252 671.493,708.35 674.868,658.529C685.425,502.658 640.294,488.387 638.915,482.397C638.78,481.812 638.039,442.735 637.921,427.496Z" style="fill:rgb(22,67,24);fill-opacity:1;"/>
        <path d="M601.089,381.508C603.192,513.174 601.69,513.411 604.874,524.394C605.523,526.635 610.314,549.528 632.46,528.459C641.323,520.028 646.879,506.536 647.688,517.488C647.894,520.289 649.122,536.927 645.635,552.53C640.451,575.721 601.292,608.116 568.814,572.239C550.014,551.472 557.039,530.051 557.902,455.506C558.818,376.404 566.519,314.227 552.2,302.869C547.11,298.833 533.447,293.58 538.742,289.906C538.931,289.776 555.659,286.179 577.538,263.536C605.878,234.206 595.475,222.005 602.44,223.697C604.463,224.188 604.058,228.051 604.016,228.45C599.243,273.974 599.851,331.602 601.089,381.508Z" style="fill:rgb(22,67,24);fill-opacity:1;"/>
        <path d="M421.485,868.918C515.204,871.843 569.513,823.026 593.118,788.247C594.816,785.744 595.409,784.871 590.005,750.571C585.362,721.097 581.563,692.034 581.686,691.555C581.857,690.891 616.335,627.904 617.67,626.706C619.21,625.325 623.341,626.95 623.685,630.477C629.798,693.037 630.84,721.443 623.462,774.494C616.554,824.168 595.445,849.752 591.021,855.115C572.763,877.244 539.922,916.361 467.455,902.723C431.138,895.888 401.869,868.355 411.485,868.147C411.995,868.136 420.686,868.852 421.485,868.918Z" style="fill:rgb(22,67,24);fill-opacity:1;"/>
        <path d="M340.511,940.895C336.161,941.001 299.115,941.897 286.497,934.504C285.648,934.006 283.009,929.904 290.49,929.356C345.683,925.311 389.645,904.478 405.222,894.094C410.404,890.639 411.055,896.964 432.452,906.6C450.005,914.505 463.945,914.539 453.501,919.501C453.351,919.572 416.07,931.741 385.52,936.617C359.504,940.769 342.395,940.821 340.511,940.895Z" style="fill:rgb(22,67,24);fill-opacity:1;"/>
    </g>
</svg>